<?xml version="1.0" encoding="UTF-8"?>
<svg id="Layer_2" data-name="Layer 2" xmlns="http://www.w3.org/2000/svg" viewBox="0 0 285.91 185.71">
  <defs>
    <style>
      .cls-1 {
        fill: #fff;
      }
    </style>
  </defs>
  <g id="Layer_1-2" data-name="Layer 1">
    <path class="cls-1" d="M110.76,48.79c1.99.47,3.99-.77,4.46-2.76.47-1.99-.77-3.99-2.76-4.46-1.99-.47-3.99.77-4.46,2.76-.47,1.99.77,3.99,2.76,4.46ZM114.29,45.81c.39-1.66-.58-3.33-2.18-3.83.08.01.16.03.24.05,1.74.41,2.82,2.15,2.41,3.89-.41,1.74-2.15,2.82-3.89,2.41-.08-.02-.16-.04-.23-.06,1.66.27,3.27-.79,3.66-2.46ZM110.84,57.52c1.35.32,2.71-.52,3.03-1.87.32-1.35-.53-2.71-1.88-3.02-1.35-.32-2.7.52-3.02,1.87s.53,2.71,1.87,3.02ZM113.25,55.5c.26-1.13-.39-2.25-1.48-2.6.05,0,.1.02.15.03,1.18.28,1.91,1.46,1.64,2.64-.28,1.18-1.46,1.91-2.64,1.64-.05-.01-.1-.02-.15-.04,1.12.18,2.22-.54,2.48-1.67ZM177.73,24.37h-22.46c-1.6,4.84-6.53,8.34-12.39,8.34s-10.8-3.51-12.4-8.34h-22.59v15.49l14.34-.02v45.02h39.96c-2.95,0-5.59-2.08-6.19-5.07-.69-3.43,1.53-6.77,4.95-7.46.45-.09.91-.13,1.35-.12v-2.56c-.89-.02-1.76-.29-2.52-.8-1.04-.69-1.75-1.75-1.99-2.98-.25-1.22,0-2.47.7-3.51.69-1.05,1.75-1.75,2.97-2,.29-.06.56-.08.84-.09v-20.38s.02-.04.05-.04h15.37s0-15.48,0-15.48ZM155.88,56.98c.11,7.38-5.85,13.28-13.04,13.28-7.13.01-12.99-5.72-13.08-12.88-.09-7.36,5.84-13.25,13.06-13.25,7.19,0,12.95,5.78,13.06,12.84ZM115.44,50.33c-.24,1.04.4,2.08,1.44,2.33s2.08-.4,2.33-1.44c.25-1.05-.4-2.09-1.44-2.33-1.04-.24-2.08.4-2.33,1.45ZM118.97,51.16c-.21.91-1.12,1.47-2.03,1.26-.04,0-.08-.02-.12-.03.87.14,1.7-.41,1.9-1.28.21-.87-.3-1.74-1.13-2,.03,0,.08.01.12.02.91.21,1.47,1.12,1.26,2.04ZM165.79,64.19c-.38-1.91-2.24-3.14-4.15-2.75-1.9.38-3.14,2.23-2.76,4.14.38,1.91,2.24,3.14,4.14,2.76,1.91-.38,3.15-2.23,2.77-4.14ZM162.93,67.89c-.07.01-.15.03-.21.03,1.54-.43,2.51-1.97,2.19-3.56-.32-1.59-1.81-2.65-3.39-2.44.07-.02.14-.04.21-.05,1.67-.33,3.28.74,3.61,2.41.33,1.67-.74,3.28-2.41,3.61ZM153.26,53.87c-.43-.04-.87-.11-1.31-.11-.85,0-1.65.23-2.36.68-1.77,1.12-3.68,1.4-5.72,1.01-1.08-.2-2.08-.61-3.07-1.09-1.55-.73-3.15-.98-4.83-.6-1.45.33-2.72,1.03-3.85,2-.05.04-.1.08-.17.14.3-3.99,3.63-8.79,9.32-9.59,5.98-.84,10.72,3.13,12,7.54ZM169.86,68.5c-1.46.29-2.41,1.72-2.12,3.18.29,1.47,1.72,2.42,3.19,2.13s2.41-1.72,2.12-3.19c-.29-1.46-1.72-2.41-3.18-2.12ZM170.86,73.48c-.06.01-.12.01-.17.02,1.18-.33,1.92-1.51,1.68-2.74-.24-1.22-1.38-2.03-2.6-1.88.05-.02.1-.03.16-.04,1.28-.26,2.52.57,2.78,1.85.26,1.29-.57,2.53-1.85,2.79ZM93.09,84.69c-4.59-8.21-7.22-17.65-7.22-27.7C85.88,25.56,111.48,0,142.95,0s57.08,25.56,57.08,56.99c0,22.81-13.5,42.52-32.92,51.61-3.03,1.65-5.55,1.9-6.25,1.93-.17.03-.52.1-.99.2,0,0-.01,0-.02,0-.37.1-.74.2-1.12.31-.35.09-.7.16-1.04.23-.24.03-.48.05-.71.07-2.87.62-6.51,1.47-8.24,2.06-.41.15-.94.21-1.56.21-6.16,0-21.34-6.42-21.5-6.5-3.86-1.72-11.27-10.66-11.82-14.3-.2-1.32.38-2.06.74-2.37,3.37-2.95,6.68-.31,9.19,2.33,3.24,3.4,5.12,4.75,5.14,4.76.03.03.07.05.1.08.14-.12.3-.24.46-.35,2.66-1.86,7.87-1.35,12.98-.68l.85.11c2.42.31,3.8-.71,3.82-.71.03-.03.06-.05.09-.07,6.54-4.61,9-5.97,17.15-3.93,3.95.99,6.25,2.46,7.56,3.95h-5.98c-.72-.28-1.51-.54-2.38-.75-6.81-1.71-8.35-.86-14.42,3.41-.43.33-2.63,1.84-6.26,1.38l-.87-.11c-2.64-.35-8.82-1.17-10.65.11-.34.24-.55.45-.69.6.03,0,.05,0,.08,0,2.42-.15,7.4,1.59,8.38,1.94.86.31,1.3,1.25.99,2.11-.31.86-1.26,1.3-2.11.99-2.16-.78-5.79-1.81-7.05-1.75-1.73.11-3.16-.68-3.63-2.04-.09-.25-.22-.77-.12-1.45-.07-.04-.14-.08-.21-.13-.09-.06-2.13-1.51-5.63-5.19-2.58-2.71-3.59-2.79-4.23-2.43.68,2.33,6.75,10.11,9.84,11.48,5.79,2.56,18.49,6.94,20.65,6.19,3.28-1.13,12.3-2.95,12.68-3.02.1-.02.21-.03.31-.03.01,0,1.1-.04,2.69-.58,19.58-8.03,33.4-27.26,33.4-49.67,0-29.6-24.13-53.69-53.78-53.69s-53.78,24.09-53.78,53.69c0,10.13,2.82,19.6,7.73,27.7h-3.8ZM161.12,73.62c-2.81.56-4.63,3.29-4.07,6.1.56,2.81,3.29,4.63,6.1,4.07,2.81-.56,4.63-3.29,4.07-6.1-.56-2.81-3.29-4.63-6.1-4.07ZM166.57,77.82c.49,2.45-1.1,4.83-3.55,5.32-.11.02-.22.04-.33.06,2.27-.63,3.7-2.91,3.23-5.25s-2.66-3.9-5-3.6c.1-.03.22-.05.33-.08,2.45-.49,4.83,1.1,5.32,3.55ZM38.57,176.74h-5.41v8.78h2.02v-2.85h3.15c2.43,0,3.75-.98,3.75-2.97,0-1.77-1.1-2.96-3.51-2.96ZM38.22,181.14h-3.04v-2.85h3.04c1.18,0,1.81.41,1.81,1.41s-.63,1.44-1.81,1.44ZM66.34,183.96h5.81v1.56h-7.83v-8.78h7.7v1.56h-5.68v1.94h5.33v1.54h-5.33v2.18ZM167.75,176.74l-4.06,8.78h2.14l.75-1.72h4.82l.74,1.72h2.14l-4.05-8.78h-2.48ZM167.26,182.26l1.73-3.99,1.73,3.99h-3.46ZM203.26,176.74h2.03v8.78h-2.27l-4.87-6.27v6.27h-2.02v-8.78h2.26l4.87,6.28v-6.28ZM152.24,183.96h5.68v1.56h-7.71v-8.78h2.03v7.23ZM250.4,176.74h2.35l-4.06,5.67v3.11h-2.03v-3.11l-4.06-5.67h2.35l2.73,3.98,2.73-3.98ZM237.15,179.65c0-1.77-1.23-2.91-3.61-2.91h-5.42v8.78h2.02v-2.97h3.2l1.86,2.97h2.25l-2.1-3.26c1.15-.4,1.81-1.23,1.81-2.61ZM233.46,181.02h-3.32v-2.72h3.32c1.25,0,1.63.6,1.63,1.35s-.4,1.37-1.63,1.37ZM216.3,176.74h-3.99v8.78h3.99c2.73,0,5.29-.89,5.29-4.39s-2.56-4.39-5.29-4.39ZM216.1,183.96h-1.76v-5.67h1.76c2.09,0,3.42.58,3.42,2.84s-1.33,2.83-3.42,2.83ZM187.09,176.74h2.02v5.23c0,3.07-1.98,3.74-4.4,3.74s-4.4-.67-4.4-3.74v-5.23h2.02v5.11c0,1.79.88,2.33,2.38,2.33s2.38-.54,2.38-2.33v-5.11ZM87.5,176.74h3.15v8.78h-2.02v-6.94l-2.95,6.94h-1.92l-2.95-6.94v6.94h-2.02v-8.78h3.15l2.77,6.75,2.78-6.75ZM97.67,176.74h2.02v8.78h-2.02v-8.78ZM57.64,179.65c0-1.77-1.23-2.91-3.61-2.91h-5.42v8.78h2.02v-2.97h3.2l1.86,2.97h2.25l-2.1-3.26c1.15-.4,1.81-1.23,1.81-2.61ZM53.95,181.02h-3.32v-2.72h3.32c1.25,0,1.63.6,1.63,1.35s-.4,1.37-1.63,1.37ZM131.25,176.74h3.15v8.78h-2.02v-6.94l-2.95,6.94h-1.92l-2.95-6.94v6.94h-2.02v-8.78h3.15l2.77,6.75,2.78-6.75ZM113.5,176.74h2.02v5.23c0,3.07-1.98,3.74-4.4,3.74s-4.4-.67-4.4-3.74v-5.23h2.02v5.11c0,1.79.88,2.33,2.38,2.33s2.38-.54,2.38-2.33v-5.11ZM203.62,130.03v14.44l15.85-14.44h16.53l-17.2,15.23,17.99,24.25h-15.62l-11.45-16.3-6.09,5.41v10.89h-13.37v-39.48h13.37ZM18.22,130.03L0,169.52h13.93l2.48-6.09h19.06l2.54,6.09h13.93l-18.27-39.48h-15.45ZM20.14,154.29l5.81-14.27,5.87,14.27h-11.68ZM161.51,154.34l1.82-8.88h21.5v8.88h-23.32ZM260.19,130.03c-12.81,0-25.66,5.26-25.66,19.75s12.86,19.81,25.66,19.81,25.72-5.26,25.72-19.81-12.92-19.75-25.72-19.75ZM260.2,160.47c-6.9,0-13.82-2.84-13.82-10.67s6.92-10.64,13.82-10.64,13.85,2.84,13.85,10.64-6.96,10.67-13.85,10.67ZM190.25,169.51h-44.56v-39.48h39.15v9.35h-25.78l-5.31,21.06h36.5v9.08ZM103.64,149.9c0,3.94,1.62,7.49,4.22,10.05v9.57h-13.43v-39.48h13.43v9.82c-2.61,2.55-4.22,6.11-4.22,10.05ZM89.72,139.37h-11.37s-.03,0-.03.02v30.12h-19.11v-30.15h-11.63s0-9.33,0-9.33h13.63c.96,2.91,3.94,5.04,7.48,5.04s6.52-2.12,7.48-5.03h13.55s0,9.34,0,9.34ZM126.09,147.23c-.35-.03-.7-.08-1.05-.08-.68,0-1.33.19-1.9.55-1.42.9-2.96,1.13-4.59.81-.87-.16-1.67-.49-2.47-.87-1.24-.59-2.53-.79-3.88-.48-1.17.27-2.19.83-3.1,1.61-.04.03-.08.07-.14.11.24-3.21,2.91-7.06,7.49-7.7,4.8-.67,8.61,2.52,9.64,6.06ZM117.7,137.31c-6.96,0-12.59,5.63-12.59,12.59s5.63,12.6,12.59,12.6,12.59-5.64,12.59-12.6-5.63-12.59-12.59-12.59ZM117.72,160.39c-5.73.01-10.44-4.6-10.51-10.35-.07-5.91,4.69-10.64,10.49-10.64,5.78,0,10.4,4.64,10.49,10.32.09,5.93-4.7,10.66-10.48,10.67ZM127.6,130.03h13.37v39.48h-13.37v-9.62c2.57-2.55,4.17-6.08,4.17-9.99s-1.59-7.44-4.17-9.99v-9.88Z"/>
  </g>
</svg>