<?xml version="1.0" encoding="UTF-8"?>
<svg id="Layer_1" xmlns="http://www.w3.org/2000/svg" version="1.1" xmlns:xlink="http://www.w3.org/1999/xlink" viewBox="0 0 792 612">
  <!-- Generator: Adobe Illustrator 29.7.0, SVG Export Plug-In . SVG Version: 2.1.1 Build 138)  -->
  <defs>
    <style>
      .st0 {
        fill: url(#linear-gradient);
      }
    </style>
    <linearGradient id="linear-gradient" x1="51" y1="306" x2="741" y2="306" gradientUnits="userSpaceOnUse">
      <stop offset="0" stop-color="#ba00ff"/>
      <stop offset=".42" stop-color="#9008f4"/>
      <stop offset="1" stop-color="#5116e3"/>
    </linearGradient>
  </defs>
  <path class="st0" d="M585.51,346.65h6.4v27.58h-7.13l-15.31-19.72v19.72h-6.33v-27.58h7.09l15.28,19.72v-19.72ZM155.28,362.49h16.74v-4.87h-16.74v-6.1h17.83v-4.87h-24.2v27.58h24.59v-4.87h-18.23v-6.86ZM213.02,367.83l-8.72-21.18h-9.91v27.58h6.36v-21.81l9.25,21.81h6.03l9.28-21.81v21.81h6.33v-27.58h-9.88l-8.75,21.18ZM253.72,374.23h6.33v-27.58h-6.33v27.58ZM122.23,363.98l6.6,10.24h-7.06l-5.83-9.35h-10.04v9.35h-6.36v-27.58h17.04c7.49,0,11.34,3.58,11.34,9.12,0,4.34-2.02,6.96-5.67,8.22ZM121.44,355.77c0-2.35-1.16-4.24-5.1-4.24h-10.44v8.55h10.44c3.85,0,5.1-2.02,5.1-4.31ZM725.06,359.15l-8.62-12.5h-7.36l12.76,17.8v9.78h6.4v-9.78l12.76-17.8h-7.36l-8.58,12.5ZM617.01,284.85c0-34.95,31.03-47.68,61.93-47.68s62.06,12.73,62.06,47.68-31.18,47.81-62.06,47.81-61.93-12.7-61.93-47.81ZM645.62,284.88c0,18.91,16.7,25.76,33.35,25.76s33.42-6.85,33.42-25.76-16.8-25.66-33.42-25.66-33.35,6.85-33.35,25.66ZM79.04,355.93c0,6.26-4.14,9.35-11.8,9.35h-9.88v8.95h-6.36v-27.58h17c7.56,0,11.04,3.71,11.04,9.28ZM72.58,355.93c0-3.12-1.99-4.41-5.67-4.41h-9.55v8.95h9.55c3.68,0,5.67-1.49,5.67-4.54ZM686.34,363.98l6.6,10.24h-7.06l-5.83-9.35h-10.04v9.35h-6.36v-27.58h17.04c7.49,0,11.34,3.58,11.34,9.12,0,4.34-2.02,6.96-5.67,8.22ZM685.55,355.77c0-2.35-1.16-4.24-5.1-4.24h-10.44v8.55h10.44c3.85,0,5.1-2.02,5.1-4.31ZM216.77,249.34c-8.53,0-15.71-5.12-18.02-12.17h-32.89v22.55l28.05-.02v72.78h46.1v-72.7c0-.05.05-.08.08-.05h27.44v-22.55h-32.71c-2.32,7.05-9.52,12.17-18.05,12.17ZM132.25,237.18l44.11,95.31h-33.63l-6.13-14.71h-46l-5.98,14.71h-33.63l43.96-95.31h37.29ZM127.77,295.72l-14.15-34.44-14.03,34.44h28.18ZM303.47,362.69c0,5.64-2.75,7.32-7.49,7.32s-7.49-1.69-7.49-7.32v-16.04h-6.36v16.41c0,9.68,6.3,11.77,13.86,11.77s13.82-2.09,13.82-11.77v-16.41h-6.33v16.04ZM481.73,346.65l12.73,27.58h-6.73l-2.32-5.4h-15.15l-2.35,5.4h-6.76l12.79-27.58h7.79ZM483.29,363.98l-5.47-12.53-5.44,12.53h10.91ZM425.18,346.65h-6.4v27.58h24.26v-4.87h-17.87v-22.71ZM534.7,362.69c0,5.64-2.75,7.32-7.46,7.32s-7.49-1.69-7.49-7.32v-16.04h-6.36v16.41c0,9.68,6.26,11.77,13.86,11.77s13.82-2.09,13.82-11.77v-16.41h-6.36v16.04ZM440.78,295.85h56.28v-21.41h-51.88l-4.4,21.41ZM358.94,261.03c6.21,6.16,10.06,14.69,10.06,24.11s-3.84,17.97-10.06,24.11v23.24h32.28v-95.31h-32.28v23.85ZM348.17,279.81c1.4-.87,2.95-1.32,4.58-1.32.87,0,1.73.13,2.55.2-2.24-7.76-10.03-14.84-20.14-14.84-1.02,0-2.06.08-3.11.2-11.05,1.55-17.49,10.87-18.07,18.61.13-.1.23-.2.33-.28,2.19-1.88,4.63-3.23,7.46-3.89,3.26-.74,6.39-.25,9.37,1.17,1.91.92,3.87,1.71,5.96,2.11,3.95.76,7.64.2,11.07-1.96ZM350.47,367.83l-8.68-21.18h-9.91v27.58h6.36v-21.81l9.25,21.81h6.03l9.25-21.81v21.81h6.36v-27.58h-9.91l-8.75,21.18ZM311.31,260.9v-23.72h-32.41v95.31h32.41v-23.09c-6.29-6.16-10.18-14.77-10.18-24.26s3.89-18.07,10.18-24.23ZM643.15,360.44c0,11.01-8.05,13.79-16.64,13.79h-12.53v-27.58h12.53c8.58,0,16.64,2.78,16.64,13.79ZM636.66,360.44c0-7.09-4.21-8.92-10.77-8.92h-5.54v17.83h5.54c6.56,0,10.77-1.79,10.77-8.92ZM335.06,315.53c-16.8,0-30.39-13.62-30.39-30.4s13.59-30.39,30.39-30.39,30.39,13.62,30.39,30.39-13.62,30.4-30.39,30.4ZM335.06,310.46h.05c13.92-.02,25.48-11.43,25.28-25.76-.23-13.69-11.38-24.87-25.33-24.9-14,0-25.51,11.4-25.33,25.68.18,13.85,11.53,24.97,25.33,24.97ZM579,273.93l41.52-36.76h-39.86l-38.26,34.85v-34.85h-32.25v73.39h-88.1l12.83-50.84h62.21v-22.55h-94.49v95.28h107.55v.02h32.25v-26.27l14.71-13.08,27.62,39.35h37.7l-43.43-58.55Z"/>
</svg>